<?xml version="1.0"?>
<svg width="50" height="50" xmlns="http://www.w3.org/2000/svg" xmlns:svg="http://www.w3.org/2000/svg" fill="black">
 <g class="layer">
  <title>Layer 1</title>
  <path d="m39.42,35.14l-0.57,-1.42l-1.26,-3.1l-9.54,-23.56l-2.06,-5.06l-2.1,5.13l-9.19,22.5l-1.72,-0.66l-1.48,3.64l1.71,0.66l-4.21,10.3l2.8,3.24l4.97,-12.17l9.88,3.82l4.32,1.66l-1.28,-4.7l-0.87,-3.25l5.89,1.65l2.99,0.83l-1.99,1.63l4.25,10.49l2.86,-3.25l-3.4,-8.38zm-11.76,-7.29l-4.18,-1.17l1.17,4.33l0.74,2.75l-7.13,-2.75l7.69,-18.81l6.94,17.11l-5.23,-1.46z" id="svg_1"/>
 </g>
</svg>