<svg fill="none" height="60" viewBox="0 0 101 70" width="60"
	xmlns="http://www.w3.org/2000/svg">
	<path d="M64.423 34.1361L63.849 32.7231L62.594 29.6231L53.046 6.06409L50.9929 0.996094L48.8929 6.1261L39.699 28.6321L37.985 27.9721L36.499 31.6131L38.209 32.2731L34 42.5731L36.7999 45.8081L41.7689 33.6421L51.653 37.4551L55.965 39.1161L54.694 34.4161L53.819 31.1741L59.709 32.8181L62.7 33.6531L60.7059 35.2811L64.958 45.7661L67.817 42.5211L64.423 34.1361ZM52.657 26.8531L48.4769 25.6841L49.646 30.0121L50.3889 32.7561L43.2639 30.0091L50.95 11.1971L57.886 28.3121L52.657 26.8531Z" fill="black"></path>
	<path d="M10.1406 65.4092H8.6875L7.5 62.2686H2.75L1.63281 65.4092H0.171875L4.46875 54.2061H5.82812L10.1406 65.4092ZM7.07031 61.0889L5.3125 56.3154C5.25521 56.1592 5.19792 55.9092 5.14062 55.5654H5.10938C5.05729 55.8831 4.9974 56.1331 4.92969 56.3154L3.1875 61.0889H7.07031ZM22.9844 65.4092H21.7031V60.8154C21.7031 59.93 21.5651 59.2894 21.2891 58.8936C21.0182 58.4977 20.5599 58.2998 19.9141 58.2998C19.3672 58.2998 18.901 58.5498 18.5156 59.0498C18.1354 59.5498 17.9453 60.1488 17.9453 60.8467V65.4092H16.6641V60.6592C16.6641 59.0863 16.0573 58.2998 14.8438 58.2998C14.2812 58.2998 13.8177 58.5368 13.4531 59.0107C13.0885 59.4795 12.9062 60.0915 12.9062 60.8467V65.4092H11.625V57.4092H12.9062V58.6748H12.9375C13.5052 57.7061 14.3333 57.2217 15.4219 57.2217C15.9688 57.2217 16.4453 57.3753 16.8516 57.6826C17.2578 57.9847 17.5365 58.3831 17.6875 58.8779C18.2812 57.7738 19.1667 57.2217 20.3438 57.2217C22.1042 57.2217 22.9844 58.3076 22.9844 60.4795V65.4092ZM26.7188 64.2529H26.6875V69.0889H25.4062V57.4092H26.6875V58.8154H26.7188C27.349 57.7529 28.2708 57.2217 29.4844 57.2217C30.5156 57.2217 31.3203 57.5811 31.8984 58.2998C32.4766 59.0133 32.7656 59.9717 32.7656 61.1748C32.7656 62.5133 32.4401 63.5863 31.7891 64.3936C31.138 65.1956 30.2474 65.5967 29.1172 65.5967C28.0807 65.5967 27.2812 65.1488 26.7188 64.2529ZM26.6875 61.0264V62.1436C26.6875 62.805 26.901 63.3675 27.3281 63.8311C27.7604 64.2894 28.3073 64.5186 28.9688 64.5186C29.7448 64.5186 30.3516 64.2217 30.7891 63.6279C31.2318 63.0342 31.4531 62.2087 31.4531 61.1514C31.4531 60.2607 31.2474 59.5628 30.8359 59.0576C30.4245 58.5524 29.8672 58.2998 29.1641 58.2998C28.4193 58.2998 27.8203 58.5602 27.3672 59.0811C26.9141 59.5967 26.6875 60.2451 26.6875 61.0264ZM41.2422 61.7295H35.5938C35.6146 62.6201 35.8542 63.3076 36.3125 63.792C36.7708 64.2764 37.401 64.5186 38.2031 64.5186C39.1042 64.5186 39.9323 64.2217 40.6875 63.6279V64.8311C39.9844 65.3415 39.0547 65.5967 37.8984 65.5967C36.7682 65.5967 35.8802 65.2347 35.2344 64.5107C34.5885 63.7816 34.2656 62.7581 34.2656 61.4404C34.2656 60.1956 34.6172 59.1826 35.3203 58.4014C36.0286 57.6149 36.9062 57.2217 37.9531 57.2217C39 57.2217 39.8099 57.5602 40.3828 58.2373C40.9557 58.9144 41.2422 59.8545 41.2422 61.0576V61.7295ZM39.9297 60.6436C39.9245 59.904 39.7448 59.3285 39.3906 58.917C39.0417 58.5055 38.5547 58.2998 37.9297 58.2998C37.3255 58.2998 36.8125 58.516 36.3906 58.9482C35.9688 59.3805 35.7083 59.9456 35.6094 60.6436H39.9297ZM50.0156 65.4092H48.7344V64.0498H48.7031C48.1094 65.0811 47.1927 65.5967 45.9531 65.5967C44.9479 65.5967 44.1432 65.2399 43.5391 64.5264C42.9401 63.8076 42.6406 62.8311 42.6406 61.5967C42.6406 60.2738 42.974 59.2139 43.6406 58.417C44.3073 57.6201 45.1953 57.2217 46.3047 57.2217C47.4036 57.2217 48.2031 57.654 48.7031 58.5186H48.7344V53.5654H50.0156V65.4092ZM48.7344 61.792V60.6123C48.7344 59.9665 48.5208 59.4196 48.0938 58.9717C47.6667 58.5238 47.125 58.2998 46.4688 58.2998C45.6875 58.2998 45.0729 58.5863 44.625 59.1592C44.1771 59.7321 43.9531 60.5238 43.9531 61.5342C43.9531 62.4561 44.1667 63.1852 44.5938 63.7217C45.026 64.2529 45.6042 64.5186 46.3281 64.5186C47.0417 64.5186 47.6198 64.2607 48.0625 63.7451C48.5104 63.2295 48.7344 62.5785 48.7344 61.792Z" fill="black"></path>
  <path d="M56.6484 64.9558V63.4089C56.8255 63.5652 57.0365 63.7058 57.2812 63.8308C57.5312 63.9558 57.7917 64.0626 58.0625 64.1511C58.3385 64.2345 58.6146 64.2996 58.8906 64.3464C59.1667 64.3933 59.4219 64.4167 59.6562 64.4167C60.4635 64.4167 61.0651 64.2683 61.4609 63.9714C61.862 63.6694 62.0625 63.2371 62.0625 62.6746C62.0625 62.3725 61.9948 62.1095 61.8594 61.8855C61.7292 61.6615 61.5469 61.4584 61.3125 61.2761C61.0781 61.0886 60.7995 60.9115 60.4766 60.7449C60.1589 60.573 59.8151 60.3933 59.4453 60.2058C59.0547 60.0079 58.6901 59.8074 58.3516 59.6042C58.013 59.4011 57.7188 59.1772 57.4688 58.9324C57.2188 58.6876 57.0208 58.4115 56.875 58.1042C56.7344 57.7917 56.6641 57.4272 56.6641 57.0105C56.6641 56.5001 56.776 56.0574 57 55.6824C57.224 55.3022 57.5182 54.9897 57.8828 54.7449C58.2474 54.5001 58.6615 54.3178 59.125 54.198C59.5938 54.0782 60.0703 54.0183 60.5547 54.0183C61.6589 54.0183 62.4635 54.1511 62.9688 54.4167V55.8933C62.3073 55.435 61.4583 55.2058 60.4219 55.2058C60.1354 55.2058 59.849 55.2371 59.5625 55.2996C59.276 55.3569 59.0208 55.4532 58.7969 55.5886C58.5729 55.724 58.3906 55.8985 58.25 56.1121C58.1094 56.3256 58.0391 56.586 58.0391 56.8933C58.0391 57.1798 58.0911 57.4272 58.1953 57.6355C58.3047 57.8438 58.4635 58.0339 58.6719 58.2058C58.8802 58.3777 59.1328 58.5444 59.4297 58.7058C59.7318 58.8673 60.0781 59.0444 60.4688 59.2371C60.8698 59.435 61.25 59.6433 61.6094 59.8621C61.9688 60.0808 62.2839 60.323 62.5547 60.5886C62.8255 60.8542 63.0391 61.1485 63.1953 61.4714C63.3568 61.7944 63.4375 62.1641 63.4375 62.5808C63.4375 63.1329 63.3281 63.6016 63.1094 63.9871C62.8958 64.3673 62.6042 64.6772 62.2344 64.9167C61.8698 65.1563 61.4479 65.3282 60.9688 65.4324C60.4896 65.5417 59.9844 65.5964 59.4531 65.5964C59.276 65.5964 59.0573 65.5808 58.7969 65.5496C58.5365 65.5235 58.2708 65.4819 58 65.4246C57.7292 65.3725 57.4714 65.3074 57.2266 65.2292C56.987 65.1459 56.7943 65.0548 56.6484 64.9558ZM68.6953 65.3308C68.3932 65.4975 67.9948 65.5808 67.5 65.5808C66.099 65.5808 65.3984 64.7996 65.3984 63.2371V58.5027H64.0234V57.4089H65.3984V55.4558L66.6797 55.0417V57.4089H68.6953V58.5027H66.6797V63.0105C66.6797 63.547 66.7708 63.9298 66.9531 64.1589C67.1354 64.3881 67.4375 64.5027 67.8594 64.5027C68.1823 64.5027 68.4609 64.4141 68.6953 64.2371V65.3308ZM76.875 65.4089H75.5938V64.1433H75.5625C75.0312 65.1121 74.2083 65.5964 73.0938 65.5964C71.1875 65.5964 70.2344 64.461 70.2344 62.1902V57.4089H71.5078V61.9871C71.5078 63.6746 72.1536 64.5183 73.4453 64.5183C74.0703 64.5183 74.5833 64.2891 74.9844 63.8308C75.3906 63.3673 75.5938 62.7631 75.5938 62.0183V57.4089H76.875V65.4089ZM86.2969 65.4089H85.0156V64.0496H84.9844C84.3906 65.0808 83.474 65.5964 82.2344 65.5964C81.2292 65.5964 80.4245 65.2397 79.8203 64.5261C79.2214 63.8074 78.9219 62.8308 78.9219 61.5964C78.9219 60.2735 79.2552 59.2136 79.9219 58.4167C80.5885 57.6199 81.4766 57.2214 82.5859 57.2214C83.6849 57.2214 84.4844 57.6537 84.9844 58.5183H85.0156V53.5652H86.2969V65.4089ZM85.0156 61.7917V60.6121C85.0156 59.9662 84.8021 59.4194 84.375 58.9714C83.9479 58.5235 83.4062 58.2996 82.75 58.2996C81.9688 58.2996 81.3542 58.586 80.9062 59.1589C80.4583 59.7319 80.2344 60.5235 80.2344 61.5339C80.2344 62.4558 80.4479 63.185 80.875 63.7214C81.3073 64.2527 81.8854 64.5183 82.6094 64.5183C83.3229 64.5183 83.901 64.2605 84.3438 63.7449C84.7917 63.2292 85.0156 62.5782 85.0156 61.7917ZM89.5469 55.3777C89.3177 55.3777 89.1224 55.2996 88.9609 55.1433C88.7995 54.9871 88.7188 54.7891 88.7188 54.5496C88.7188 54.31 88.7995 54.1121 88.9609 53.9558C89.1224 53.7944 89.3177 53.7136 89.5469 53.7136C89.7812 53.7136 89.9792 53.7944 90.1406 53.9558C90.3073 54.1121 90.3906 54.31 90.3906 54.5496C90.3906 54.7787 90.3073 54.974 90.1406 55.1355C89.9792 55.297 89.7812 55.3777 89.5469 55.3777ZM90.1719 65.4089H88.8906V57.4089H90.1719V65.4089ZM96.1094 65.5964C94.9271 65.5964 93.9818 65.224 93.2734 64.4792C92.5703 63.7292 92.2188 62.7371 92.2188 61.5027C92.2188 60.1589 92.5859 59.1095 93.3203 58.3542C94.0547 57.599 95.0469 57.2214 96.2969 57.2214C97.4896 57.2214 98.4193 57.5886 99.0859 58.323C99.7578 59.0574 100.094 60.0756 100.094 61.3777C100.094 62.6537 99.7318 63.6772 99.0078 64.448C98.2891 65.2136 97.3229 65.5964 96.1094 65.5964ZM96.2031 58.2996C95.3802 58.2996 94.7292 58.5808 94.25 59.1433C93.7708 59.7006 93.5312 60.4714 93.5312 61.4558C93.5312 62.4037 93.7734 63.1511 94.2578 63.698C94.7422 64.2449 95.3906 64.5183 96.2031 64.5183C97.0312 64.5183 97.6667 64.2501 98.1094 63.7136C98.5573 63.1772 98.7812 62.4141 98.7812 61.4246C98.7812 60.4246 98.5573 59.6537 98.1094 59.1121C97.6667 58.5704 97.0312 58.2996 96.2031 58.2996Z" fill="black"></path>
</svg>